<svg width="24" height="14" viewBox="0 0 24 14" fill="none" xmlns="http://www.w3.org/2000/svg">
<path d="M5.49066 4.59994C5.59975 4.7454 5.70884 4.89085 5.67248 5.10903C5.67248 5.25449 5.4543 5.47267 5.59975 5.5454L6.14521 4.89085C5.99975 4.85449 4.87248 3.50903 4.87248 3.36358L4.10884 3.76358C4.14521 3.90903 4.39975 3.76358 4.54521 3.76358C4.72703 3.76358 4.87248 3.90903 5.01793 4.01812C4.61793 4.3454 3.63612 5.21812 3.52703 5.21812C3.49066 5.21812 3.27248 5.07267 3.27248 5.21812C3.27248 5.29085 3.49066 5.47267 3.52703 5.50903L4.03612 6.12721C4.18157 6.05449 3.99975 5.9454 4.07248 5.8363C4.10884 5.76358 5.23612 4.85449 5.49066 4.59994ZM4.2543 2.96358C4.36339 2.92721 4.39975 3.07267 4.47248 2.96358L3.89066 2.27267C3.81793 2.16358 3.70884 2.05449 3.70884 2.27267C3.74521 2.41812 2.2543 3.61812 2.18157 3.65449C2.07248 3.69085 1.99975 3.5454 1.92703 3.69085C2.10884 3.90903 2.2543 4.09085 2.43612 4.30903C2.50884 4.38176 2.54521 4.45449 2.61793 4.52721C2.69066 4.59994 2.6543 4.38176 2.6543 4.38176C2.61793 4.27267 2.76339 4.16358 2.87248 4.09085C3.23612 3.72721 4.14521 2.96358 4.2543 2.96358ZM2.18157 2.7454C1.78157 2.85449 1.30884 2.70903 1.19975 2.27267C1.0543 1.8363 1.34521 1.39994 1.67248 1.1454C1.99975 0.89085 2.50884 0.927214 2.69066 1.32721C2.76339 1.50903 2.72703 1.72721 2.6543 1.90903C2.61793 2.01812 2.50884 2.12721 2.6543 2.19994C2.87248 1.9454 3.0543 1.69085 3.27248 1.4363C3.01793 1.29085 2.90884 1.0363 2.72703 0.818123C2.50884 0.563578 2.2543 0.309032 1.89066 0.272669C1.19975 0.163578 0.581571 0.89085 0.508844 1.50903C0.47248 1.8363 0.581571 2.16358 0.799753 2.45449C0.981571 2.67267 1.23612 2.85449 1.38157 3.10903C1.4543 3.1454 2.03612 2.85449 2.14521 2.81812C2.21793 2.81812 2.18157 2.78176 2.18157 2.7454C1.99975 2.81812 2.18157 2.7454 2.18157 2.7454ZM11.4543 11.3272C11.1998 11.1454 10.5088 10.2363 10.3634 10.0545L10.2907 9.94539L10.2179 9.98176C10.1816 10.0181 10.2543 10.1272 10.2179 10.1999C10.0361 10.4908 8.87248 11.3636 8.79975 11.4363C8.6543 11.509 8.50884 11.3999 8.43612 11.509C8.61794 11.7272 9.09066 12.3454 9.16339 12.3454C9.27248 12.3454 9.19975 12.1636 9.19975 12.1272C9.23612 12.0545 9.81793 11.5454 10.0361 11.3636C10.1088 11.2908 10.1816 11.4727 10.2543 11.5454C10.327 11.6545 10.3634 11.7999 10.327 11.909C10.2907 11.9818 10.1452 12.1272 10.2543 12.1999C10.3998 12.0181 10.7998 11.5454 10.8725 11.4727C10.9452 11.3999 10.727 11.4727 10.7634 11.4363C10.6907 11.4727 10.5816 11.509 10.5088 11.4363C10.4725 11.4363 10.2543 11.1818 10.2907 11.1454C10.3998 11.0727 10.5088 10.9272 10.6543 10.8909C10.8725 10.8545 11.0179 11.2545 11.0543 11.3999C11.0907 11.5454 11.0907 11.6909 11.0179 11.7999C10.9816 11.909 10.9088 11.9818 11.0179 12.0181L11.527 11.3272C11.527 11.3636 11.4907 11.3636 11.4543 11.3272C11.4179 11.3272 11.4907 11.3636 11.4543 11.3272ZM8.10884 8.09085C7.8543 8.09085 7.59975 8.19994 7.38157 8.38176C6.87248 8.81812 6.79975 9.58176 7.19975 10.1272C7.67248 10.7454 8.43612 10.8181 9.0543 10.3818C9.56339 9.94539 9.63612 9.18176 9.23612 8.6363C8.94521 8.27267 8.50884 8.09085 8.10884 8.09085ZM8.54521 8.59994C8.87248 8.56358 9.09066 8.89085 8.94521 9.25449C8.79975 9.61812 8.43612 9.98176 8.07248 10.1272C7.63612 10.309 7.34521 9.9454 7.52703 9.50903C7.67248 9.1454 8.03612 8.78176 8.39975 8.6363C8.43612 8.6363 8.47248 8.59994 8.54521 8.59994ZM7.52703 6.92721C7.63612 6.92721 7.74521 7.07267 7.81793 6.92721L7.30884 6.30903C7.16339 6.38176 7.30884 6.45449 7.27248 6.52721C7.19975 6.6363 6.6543 6.70903 6.50884 6.7454C6.54521 6.59994 6.72703 6.12721 6.79975 6.09085C6.94521 5.98176 7.01793 6.19994 7.09066 6.05449L6.43612 5.29085C6.36339 5.21812 6.29066 5.0363 6.21793 5.1454C6.21793 5.1454 6.21793 5.50903 6.18157 5.5454C6.14521 5.61812 5.96339 6.41812 5.74521 6.59994C5.63612 6.70903 5.19975 7.07267 5.09066 7.10903C4.98157 7.14539 4.90884 6.96358 4.79975 7.10903L5.38157 7.79994C5.41793 7.8363 5.52703 8.01812 5.56339 8.01812C5.67248 8.05449 5.56339 7.79994 5.59975 7.76358C5.63612 7.65449 6.18157 7.10903 6.43612 7.07267C6.76339 6.99994 7.16339 6.89085 7.52703 6.92721C7.59975 6.92721 7.4543 6.92721 7.52703 6.92721ZM16.327 9.36358C16.3634 9.50903 16.3998 9.69085 16.3634 9.8363C16.327 10.0545 16.1452 10.5272 15.8543 10.3818C15.5634 10.2363 15.3452 9.98176 15.0907 9.76358C15.2725 9.54539 15.4543 9.36358 15.7816 9.47267C15.8543 9.50903 15.927 9.47267 15.8543 9.39994C15.7452 9.32721 15.127 8.92721 15.0907 8.96358C15.0179 9.0363 15.1998 9.18176 15.127 9.32721C15.0907 9.43631 14.9816 9.50903 14.9088 9.61812C14.727 9.47267 14.4725 9.32721 14.6543 9.07267C14.7998 8.92721 14.9452 8.78176 15.1634 8.74539C15.3088 8.70903 15.5998 8.85449 15.6361 8.70903C15.3816 8.59994 15.127 8.45449 14.8725 8.3454C14.9088 8.52721 14.0725 9.39994 13.8907 9.61812C13.8543 9.65449 13.7452 9.76358 13.7452 9.79994C13.7452 9.90903 13.8907 9.8363 13.8907 9.8363C13.9998 9.79994 15.4907 11.0363 15.527 11.1454C15.5634 11.2181 15.4907 11.2908 15.527 11.3272C15.527 11.3272 15.5634 11.3636 15.5998 11.3636C15.7088 11.2545 16.6543 9.9454 16.8725 9.90903C16.6907 9.61812 16.5088 9.32721 16.327 9.0363C16.1816 9.10903 16.2907 9.29085 16.327 9.36358ZM14.8725 10.9636C14.3998 10.6363 13.5634 11.2545 13.4179 11.3272C13.1634 11.4363 12.9816 11.1818 13.127 10.9636C13.2361 10.7818 13.4543 10.6727 13.6725 10.6727C13.7452 10.6727 13.9998 10.709 13.9998 10.6727C14.0361 10.6363 14.0361 10.6363 13.9998 10.5999C13.7816 10.4545 13.5998 10.309 13.3816 10.1999C13.3452 10.4545 13.0543 10.5999 12.9088 10.7818C12.727 10.9999 12.5452 11.2545 12.5452 11.509C12.5452 11.7636 12.6907 12.0181 12.9452 12.1272C13.1998 12.2727 13.4907 12.1636 13.7452 12.0181C13.8907 11.909 14.0361 11.7999 14.1816 11.7272C14.3998 11.6181 14.727 11.7272 14.6543 12.0181C14.5816 12.2727 14.327 12.4908 14.0725 12.5636C13.927 12.5999 13.7816 12.5999 13.6361 12.5272C13.527 12.4909 13.4179 12.3454 13.3452 12.4908L14.1816 13.0727C14.2179 12.8909 14.2907 12.8181 14.4361 12.709C14.6179 12.5636 14.7634 12.3818 14.9088 12.1999C15.1998 11.8727 15.3088 11.2908 14.8725 10.9636ZM21.2725 0.745396C21.2725 0.78176 21.2725 0.78176 21.2725 0.745396L20.9452 1.10903L20.6543 1.47267C20.5816 1.5454 20.5452 1.58176 20.6543 1.65449C20.8361 1.5454 21.927 3.39994 21.8543 3.65449C21.6725 3.72721 20.2179 2.45449 20.1816 2.38176C20.1816 2.3454 20.2543 2.12721 20.1452 2.16358C20.1088 2.16358 19.9634 2.38176 19.927 2.41812L19.7088 2.67267C19.7816 2.78176 19.8179 2.67267 19.927 2.67267C19.9998 2.70903 20.3634 2.99994 20.4725 3.07267C20.2907 3.07267 19.8543 3.10903 19.7816 3.10903C19.5634 3.1454 19.6725 2.96358 19.527 2.89085L18.9816 3.5454L18.6543 3.90903C18.6543 3.90903 18.6543 3.90903 18.6543 3.9454C18.727 4.01812 18.6907 3.98176 18.7998 3.9454C18.9088 3.90903 20.3634 5.10903 20.3998 5.18176C20.4725 5.29085 20.3634 5.39994 20.5088 5.47267L20.9452 4.96358C20.9816 4.92721 20.9816 4.92721 20.9452 4.92721C20.8361 4.85449 20.8361 4.96358 20.6907 4.96358C20.5816 4.92721 19.6361 4.16358 19.3088 3.87267L21.2361 3.79994C21.3088 3.79994 21.4907 4.01812 21.4907 4.09085C21.4543 4.16358 21.3816 4.2363 21.4907 4.27267C21.5998 4.12721 21.7088 4.01812 21.8179 3.87267L21.8543 3.79994C21.8907 3.79994 21.8907 3.76358 21.8907 3.72721L21.927 3.69085C22.0361 3.58176 22.3634 3.21812 22.327 3.18176C22.2179 3.07267 22.1816 3.29085 22.0361 3.18176C21.9634 3.10903 21.7452 2.7454 21.7088 2.67267C21.6361 2.56358 21.8543 2.45449 21.927 2.41812C22.1088 2.30903 22.6907 2.12721 22.7634 2.49085C22.7634 2.56358 22.6907 2.63631 22.727 2.67267C22.727 2.67267 22.7634 2.7454 22.7998 2.70903L23.5634 1.76358C23.527 1.72721 23.527 1.72721 23.4907 1.69085C23.3088 1.87267 21.4907 1.1454 21.3816 1.03631C21.3452 0.963578 21.3452 0.745396 21.2725 0.745396ZM21.1998 1.69085C21.4907 1.79994 21.7452 1.90903 22.0361 2.05449C21.9634 2.09085 21.8907 2.12721 21.8179 2.16358C21.7452 2.19994 21.6725 2.27267 21.5998 2.3454L21.1998 1.69085ZM18.7998 4.49085C18.3998 4.45449 17.9998 4.6363 17.7088 4.96358C17.2725 5.50903 17.3088 6.30903 17.8543 6.7454C18.3998 7.18176 19.1998 7.07267 19.6361 6.56358C20.0725 6.01812 20.0361 5.21812 19.4907 4.78176C19.3088 4.6363 19.0543 4.52721 18.7998 4.49085ZM18.2907 5.07267C18.5088 5.07267 18.7634 5.21812 18.9088 5.32721C19.1998 5.50903 19.7088 5.9454 19.4543 6.30903C19.4543 6.27267 19.4907 6.27267 19.4179 6.3454C19.127 6.6363 18.6179 6.38176 18.3634 6.16358C18.1088 5.98176 17.6361 5.5454 17.927 5.18176C18.0361 5.10903 18.1452 5.07267 18.2907 5.07267ZM17.1634 6.6363C16.727 6.59994 16.2907 6.81812 15.9634 7.21812C15.7452 7.50903 15.4907 7.76358 15.2725 8.05449C15.3452 8.16358 15.4543 8.01812 15.5634 8.09085C15.6725 8.16358 17.0543 9.29085 17.0543 9.36358C17.0907 9.47267 16.9816 9.50903 17.0907 9.58176C17.127 9.61812 18.1452 8.3454 18.2543 8.12721C18.3998 7.72721 18.2907 7.25449 17.9634 6.96358C17.9998 6.99994 18.0361 6.99994 17.9634 6.96358C17.6725 6.7454 17.4179 6.6363 17.1634 6.6363ZM16.7634 7.21812C16.7998 7.21812 16.8361 7.21812 16.8725 7.21812C17.3816 7.36358 18.1088 7.98176 17.6361 8.52721C17.5634 8.59994 17.6361 8.52721 17.4907 8.67267C17.4179 8.74539 15.9634 7.58176 16.0361 7.50903C16.1816 7.32721 16.5088 7.18176 16.7634 7.21812Z" fill="white"/>
</svg>
